<?xml version="1.0" encoding="UTF-8" standalone="no"?>
<!-- Created with Inkscape (http://www.inkscape.org/) -->

<svg
   xmlns:dc="http://purl.org/dc/elements/1.1/"
   xmlns:cc="http://creativecommons.org/ns#"
   xmlns:rdf="http://www.w3.org/1999/02/22-rdf-syntax-ns#"
   xmlns:svg="http://www.w3.org/2000/svg"
   xmlns="http://www.w3.org/2000/svg"
   xmlns:sodipodi="http://sodipodi.sourceforge.net/DTD/sodipodi-0.dtd"
   xmlns:inkscape="http://www.inkscape.org/namespaces/inkscape"
   width="256"
   height="256"
   viewBox="0 0 67.733332 67.733335"
   version="1.1"
   id="svg8"
   inkscape:version="0.92.4 (5da689c313, 2019-01-14)"
   sodipodi:docname="io icons.svg"
   inkscape:export-filename="D:\code\python\LaserInterface\laserinterface\data\icons\io_estop_0.png"
   inkscape:export-xdpi="95.699997"
   inkscape:export-ydpi="95.699997">
  <defs
     id="defs2" />
  <sodipodi:namedview
     id="base"
     pagecolor="#ffffff"
     bordercolor="#666666"
     borderopacity="1.0"
     inkscape:pageopacity="0.0"
     inkscape:pageshadow="2"
     inkscape:zoom="0.7"
     inkscape:cx="-213.42534"
     inkscape:cy="367.47847"
     inkscape:document-units="mm"
     inkscape:current-layer="layer1"
     showgrid="false"
     units="px"
     inkscape:snap-grids="true"
     inkscape:window-width="1920"
     inkscape:window-height="1001"
     inkscape:window-x="-9"
     inkscape:window-y="-9"
     inkscape:window-maximized="1" />
  <metadata
     id="metadata5">
    <rdf:RDF>
      <cc:Work
         rdf:about="">
        <dc:format>image/svg+xml</dc:format>
        <dc:type
           rdf:resource="http://purl.org/dc/dcmitype/StillImage" />
        <dc:title />
      </cc:Work>
    </rdf:RDF>
  </metadata>
  <g
     inkscape:label="Layer 1"
     inkscape:groupmode="layer"
     id="layer1"
     transform="translate(0,-229.26665)">
    <text
       id="text868"
       y="236.61829"
       x="8.3154764"
       style="font-style:normal;font-weight:normal;font-size:10.58333302px;line-height:1.25;font-family:sans-serif;letter-spacing:0px;word-spacing:0px;fill:#000000;fill-opacity:1;stroke:none;stroke-width:0.26458332"
       xml:space="preserve"><tspan
         style="stroke-width:0.26458332"
         y="246.27379"
         x="8.3154764"
         id="tspan866"
         sodipodi:role="line" /></text>
    <g
       id="g1139"
       transform="translate(3.7797619,3.0238095)">
      <path
         inkscape:connector-curvature="0"
         id="path4578"
         d="m -140.02122,205.04807 47.424698,-52.16416"
         style="fill:none;stroke:#ff0000;stroke-width:0.27787417px;stroke-linecap:butt;stroke-linejoin:miter;stroke-opacity:1" />
      <path
         sodipodi:nodetypes="sssssszssss"
         inkscape:connector-curvature="0"
         id="path4552"
         d="m -138.70864,206.31952 c -1.10198,-1.04611 -2.31391,2.25282 -3.45587,0.72331 -0.83442,-1.11758 1.12569,-1.59377 1.22563,-3.37548 0.10672,-1.90261 -1.8864,-1.80807 -0.15444,-3.61035 9.61694,-10.00747 17.8395,-21.26936 28.76074,-31.69777 1.62239,-1.54918 2.45847,-4.24114 5.32302,-2.06421 1.20975,0.91934 1.84297,-1.86853 2.94441,-0.80858 1.10144,1.05999 -1.09824,1.20165 -0.676,2.93549 0.26268,1.0786 1.70615,2.13443 -0.0259,3.93673 -9.61694,10.00747 -18.72035,22.49117 -29.6416,32.91958 -1.62239,1.54917 -3.02282,2.25378 -4.30008,1.04128 z"
         style="fill:#00d6ff;fill-opacity:1;stroke:#000000;stroke-width:2.41889453;stroke-linecap:butt;stroke-linejoin:miter;stroke-miterlimit:4;stroke-dasharray:none;stroke-opacity:1" />
      <path
         inkscape:connector-curvature="0"
         id="path4580"
         d="m -95.460838,153.2598 1.719257,-0.33332"
         style="fill:none;stroke:#000000;stroke-width:0.27787417px;stroke-linecap:butt;stroke-linejoin:miter;stroke-opacity:1" />
      <path
         inkscape:connector-curvature="0"
         id="path4582"
         d="m -95.074882,151.45282 1.385932,0.47368"
         style="fill:none;stroke:#000000;stroke-width:0.27787417px;stroke-linecap:butt;stroke-linejoin:miter;stroke-opacity:1" />
      <path
         inkscape:connector-curvature="0"
         id="path4584"
         d="m -93.373166,150.04934 c 0.05263,0.10527 0.263149,1.36839 0.263149,1.36839"
         style="fill:none;stroke:#000000;stroke-width:0.27787417px;stroke-linecap:butt;stroke-linejoin:miter;stroke-opacity:1" />
      <path
         inkscape:connector-curvature="0"
         id="path4586"
         d="m -91.285495,150.55811 -0.403501,1.0526"
         style="fill:none;stroke:#000000;stroke-width:0.27787417px;stroke-linecap:butt;stroke-linejoin:miter;stroke-opacity:1" />
      <path
         inkscape:connector-curvature="0"
         id="path4588"
         d="m -90.004823,152.11948 -0.912261,0.1228"
         style="fill:none;stroke:#000000;stroke-width:0.27787417px;stroke-linecap:butt;stroke-linejoin:miter;stroke-opacity:1" />
      <path
         inkscape:connector-curvature="0"
         id="path4590"
         d="m -90.145172,153.92645 -0.999977,-0.61402"
         style="fill:none;stroke:#000000;stroke-width:0.27787417px;stroke-linecap:butt;stroke-linejoin:miter;stroke-opacity:1" />
      <path
         inkscape:connector-curvature="0"
         id="path4592"
         d="m -91.829342,154.20714 -0.105261,-0.82454 v 0"
         style="fill:none;stroke:#000000;stroke-width:0.27787417px;stroke-linecap:butt;stroke-linejoin:miter;stroke-opacity:1" />
      <path
         inkscape:connector-curvature="0"
         id="path4578-0"
         d="m -140.02122,205.04807 34.08773,-37.50666"
         style="fill:none;stroke:#ff0000;stroke-width:0.27787417px;stroke-linecap:butt;stroke-linejoin:miter;stroke-opacity:1"
         sodipodi:nodetypes="cc" />
      <path
         style="fill:none;stroke:#c50000;stroke-width:1.36500001;stroke-linecap:butt;stroke-linejoin:miter;stroke-miterlimit:4;stroke-dasharray:none;stroke-opacity:1"
         d="m -118.11756,162.44045 c -0.4437,0.0942 -1.83051,0.5561 -2.07887,-0.18899 -0.36263,-1.08787 0.0105,-3.56981 -0.56697,-4.7247 -0.97411,-1.94822 -3.5935,-2.64856 -5.10267,-4.15774 -1.14988,-1.14987 -2.10407,-2.86001 -3.59078,-4.34672"
         id="path859"
         inkscape:connector-curvature="0" />
      <path
         style="fill:none;stroke:#c50000;stroke-width:1.36500001;stroke-linecap:butt;stroke-linejoin:miter;stroke-miterlimit:4;stroke-dasharray:none;stroke-opacity:1"
         d="m -133.23661,174.91367 c -5.84422,0.21491 -2.59219,-8.12649 -8.12649,-8.12649"
         id="path863"
         inkscape:connector-curvature="0" />
      <path
         style="fill:none;stroke:#c50000;stroke-width:1.36500001;stroke-linecap:butt;stroke-linejoin:miter;stroke-miterlimit:4;stroke-dasharray:none;stroke-opacity:1"
         d="m -136.07143,183.22915 c -0.38583,-0.50921 -1.40602,-0.32503 -1.88988,-0.56697 -1.65524,-0.82761 -2.8329,-2.58219 -4.72471,-3.21279 -2.58847,-0.86283 -3.60823,0.73849 -5.48065,-1.13393"
         id="path865"
         inkscape:connector-curvature="0" />
      <path
         style="fill:none;stroke:#c50000;stroke-width:1.36500001;stroke-linecap:butt;stroke-linejoin:miter;stroke-miterlimit:4;stroke-dasharray:none;stroke-opacity:1"
         d="m -140.41816,191.9226 c -0.23941,-0.31706 -1.64047,0.17536 -2.07887,0 -1.06274,-0.4251 -4.88738,-3.23911 -5.85863,-2.26786 -1.7234,1.7234 -3.2783,4.44838 -5.48065,1.51191"
         id="path867"
         inkscape:connector-curvature="0" />
      <path
         style="fill:none;stroke:#c50000;stroke-width:1.36500001;stroke-linecap:butt;stroke-linejoin:miter;stroke-miterlimit:4;stroke-dasharray:none;stroke-opacity:1"
         d="m -110.55804,162.06247 c -0.6883,-1.78708 -0.0135,-0.7966 -0.37797,-1.88988 -0.29639,-0.88915 -1.38564,-1.32209 -1.7009,-2.26786 -0.39687,-1.19062 0.39688,-2.77812 0,-3.96875 -0.41414,-1.24243 -4.18918,-4.53571 -1.13393,-4.53571"
         id="path869"
         inkscape:connector-curvature="0" />
      <path
         style="fill:none;stroke:#c50000;stroke-width:1.36500001;stroke-linecap:butt;stroke-linejoin:miter;stroke-miterlimit:4;stroke-dasharray:none;stroke-opacity:1"
         d="m -99.218753,171.51189 c 0.01807,-1.15696 3.264307,-2.78331 4.535712,-1.51191 0.202793,0.20279 0.179501,0.75121 0.566965,0.94494 1.372547,0.68627 5.470364,0.5074 6.992559,0"
         id="path871"
         inkscape:connector-curvature="0" />
      <path
         style="fill:none;stroke:#c50000;stroke-width:1.36500001;stroke-linecap:butt;stroke-linejoin:miter;stroke-miterlimit:4;stroke-dasharray:none;stroke-opacity:1"
         d="m -102.43155,179.44939 c 5.386625,-0.43061 7.528178,4.08429 11.71726,5.48065"
         id="path873"
         inkscape:connector-curvature="0" />
      <path
         style="fill:none;stroke:#c50000;stroke-width:1.36500001;stroke-linecap:butt;stroke-linejoin:miter;stroke-miterlimit:4;stroke-dasharray:none;stroke-opacity:1"
         d="m -106.65709,189.4229 c 0.83831,0.20183 3.48023,-1.16399 4.13833,-0.44352 0.37438,0.40986 0.0545,1.54661 0.31516,2.05483 1.29911,2.53271 5.341552,5.18245 8.000488,6.03845"
         id="path875"
         inkscape:connector-curvature="0" />
      <path
         style="fill:none;stroke:#c50000;stroke-width:1.36500001;stroke-linecap:butt;stroke-linejoin:miter;stroke-miterlimit:4;stroke-dasharray:none;stroke-opacity:1"
         d="m -119.44048,203.45088 c 0.51455,0.17212 1.07491,0.12997 1.32292,0.37798 0.72201,0.72201 -0.22483,2.38518 0.18899,3.21279 0.12183,0.24367 6.52301,1.9873 7.37053,2.83482 1.1592,1.1592 -2.49538,3.93022 0.18899,6.61459"
         id="path877"
         inkscape:connector-curvature="0" />
      <path
         style="fill:none;stroke:#c50000;stroke-width:1.36500001;stroke-linecap:butt;stroke-linejoin:miter;stroke-miterlimit:4;stroke-dasharray:none;stroke-opacity:1"
         d="m -127.94495,206.66367 c 2.54491,1.30567 1.62275,6.95136 2.64584,8.31547 0.91712,1.22283 1.32293,1.51196 1.70089,3.02382"
         id="path879"
         inkscape:connector-curvature="0" />
      <path
         style="fill:none;stroke:#c50000;stroke-width:1.36500001;stroke-linecap:butt;stroke-linejoin:miter;stroke-miterlimit:4;stroke-dasharray:none;stroke-opacity:1"
         d="m -125.3388,168.4007 c -4.19621,0.49521 -3.18991,-2.22208 -4.34673,-4.53571 -0.21773,-0.43546 -1.53883,-0.8999 -1.88988,-1.13393 -0.92604,-0.61736 -2.12695,-4.31579 -4.7247,-6.04762"
         id="path861"
         inkscape:connector-curvature="0" />
      <path
         style="fill:none;stroke:#c50000;stroke-width:1.36500001;stroke-linecap:butt;stroke-linejoin:miter;stroke-miterlimit:4;stroke-dasharray:none;stroke-opacity:1"
         d="m -112.81253,197.00204 c 4.11764,-0.94785 3.4123,1.86263 4.81346,4.03699 0.26372,0.40925 1.62744,0.72752 2.00182,0.92205 0.98759,0.51317 2.58293,4.05936 5.35335,5.49893"
         id="path861-1"
         inkscape:connector-curvature="0" />
      <rect
         y="147.88622"
         x="-154.5632"
         height="67.73333"
         width="67.73333"
         id="rect869"
         style="fill:none;fill-opacity:1;stroke:#030200;stroke-width:0.25999999;stroke-linecap:round;stroke-miterlimit:4;stroke-dasharray:none;stroke-opacity:1" />
    </g>
    <g
       id="g1090">
      <rect
         y="185.91994"
         x="105.12026"
         height="23.437174"
         width="23.45356"
         id="rect880"
         style="fill:#a30000;fill-opacity:1;stroke:#030200;stroke-width:1.49039805;stroke-linecap:round;stroke-miterlimit:4;stroke-dasharray:none;stroke-opacity:1" />
      <path
         inkscape:connector-curvature="0"
         id="rect877"
         d="M 88.511518,189.75352 H 143.47137 V 212.5515 H 88.511518 Z"
         style="fill:#e1a300;fill-opacity:1;stroke:#030200;stroke-width:1.49039805;stroke-linecap:round;stroke-miterlimit:4;stroke-dasharray:none;stroke-opacity:1" />
      <path
         sodipodi:nodetypes="sssssssss"
         inkscape:connector-curvature="0"
         id="rect884"
         d="m 95.266454,181.59483 c 12.775416,-6.03615 26.487056,-8.63733 43.261846,0 1.00827,0.51916 2.02396,0.95536 2.02396,2.14206 v 1.53256 c 0,1.18671 -0.90269,2.14206 -2.02396,2.14206 H 95.266454 c -1.121274,0 -2.023961,-0.95535 -2.023961,-2.14206 v -1.53256 c 0,-1.1867 1.000084,-1.6583 2.023961,-2.14206 z"
         style="fill:#d90000;fill-opacity:1;stroke:#030200;stroke-width:1.49039805;stroke-linecap:round;stroke-miterlimit:4;stroke-dasharray:none;stroke-opacity:1" />
      <path
         inkscape:connector-curvature="0"
         id="path897"
         d="m 90.241814,184.36308 c -0.790317,-0.80025 -1.131338,-1.95115 -2.173363,-2.64583 -0.670328,-0.44689 -1.578805,-0.48558 -2.267857,-0.94494 -1.934527,-1.28969 -2.173363,-3.22789 -2.173363,-5.48066"
         style="fill:none;fill-opacity:1;stroke:#000000;stroke-width:0.26458332px;stroke-linecap:butt;stroke-linejoin:miter;stroke-opacity:1" />
      <path
         inkscape:connector-curvature="0"
         id="path899"
         d="m 87.501487,186.34745 c -3.647165,-2.17314 -8.22789,-2.36925 -11.43378,-5.57514"
         style="fill:none;fill-opacity:1;stroke:#000000;stroke-width:0.26458332px;stroke-linecap:butt;stroke-linejoin:miter;stroke-opacity:1" />
      <path
         inkscape:connector-curvature="0"
         id="path901"
         d="m 142.40253,184.45757 c 0.37118,0.0566 0.70576,-0.079 0.94494,-0.37797 0.42632,-0.5329 1.34857,-1.17668 1.6064,-1.6064 0.41746,-0.69578 0.40702,-1.30255 1.22842,-1.79539 1.62597,-0.97558 2.21047,1.12551 4.7247,-2.64583"
         style="fill:none;fill-opacity:1;stroke:#000000;stroke-width:0.26458332px;stroke-linecap:butt;stroke-linejoin:miter;stroke-opacity:1" />
      <path
         inkscape:connector-curvature="0"
         id="path903"
         d="m 142.96949,186.81992 c 0.1777,-0.0917 0.38362,0.0458 0.56697,0 1.18129,-0.29532 2.29431,-0.65011 3.49628,-0.85044 1.33119,-0.22187 2.73866,0.8825 4.53571,0.28348 0.99234,-0.33078 4.89255,-2.07887 5.66964,-2.07887"
         style="fill:none;fill-opacity:1;stroke:#000000;stroke-width:0.26458332px;stroke-linecap:butt;stroke-linejoin:miter;stroke-opacity:1" />
      <rect
         y="151.40369"
         x="82.172028"
         height="67.73333"
         width="67.73333"
         id="rect869-4-9"
         style="fill:none;fill-opacity:1;stroke:#030200;stroke-width:0.25999999;stroke-linecap:round;stroke-miterlimit:4;stroke-dasharray:none;stroke-opacity:1" />
    </g>
    <g
       id="g1114">
      <rect
         y="151.10083"
         x="-72.193924"
         height="67.73333"
         width="67.73333"
         id="rect869-4"
         style="fill:none;fill-opacity:1;stroke:#030200;stroke-width:0.25999999;stroke-linecap:round;stroke-miterlimit:4;stroke-dasharray:none;stroke-opacity:1" />
      <path
         inkscape:connector-curvature="0"
         id="path4611"
         d="m -68.693209,182.59615 -0.543817,32.22118 h 44.457076"
         style="fill:none;stroke:#000000;stroke-width:1.89737225;stroke-linecap:round;stroke-linejoin:miter;stroke-miterlimit:4;stroke-dasharray:none;stroke-opacity:1" />
      <path
         inkscape:connector-curvature="0"
         id="path4613"
         d="m -68.693209,182.59615 6.52581,0.13596 31.709573,-22.93807"
         style="fill:none;stroke:#000000;stroke-width:1.89737225;stroke-linecap:round;stroke-linejoin:miter;stroke-miterlimit:4;stroke-dasharray:none;stroke-opacity:1"
         sodipodi:nodetypes="ccc" />
      <path
         inkscape:connector-curvature="0"
         id="path4615"
         d="m -27.770946,182.32424 h 2.719086 l 0.135954,2.44718"
         style="fill:none;stroke:#000000;stroke-width:1.89737225;stroke-linecap:round;stroke-linejoin:miter;stroke-miterlimit:4;stroke-dasharray:none;stroke-opacity:1" />
      <path
         inkscape:connector-curvature="0"
         id="path4617"
         d="M -24.77995,214.81733 -7.3559506,190.72556"
         style="fill:none;stroke:#000000;stroke-width:1.89737225;stroke-linecap:round;stroke-linejoin:miter;stroke-miterlimit:4;stroke-dasharray:none;stroke-opacity:1"
         sodipodi:nodetypes="cc" />
      <rect
         y="182.59616"
         x="-68.693207"
         height="32.221188"
         width="43.913258"
         id="rect4622"
         style="fill:#000000;fill-opacity:0.17391304;stroke:none;stroke-width:0;stroke-miterlimit:4;stroke-dasharray:none;stroke-opacity:1" />
    </g>
    <g
       id="g1106">
      <rect
         y="151.25201"
         x="5.7448139"
         height="67.73333"
         width="67.73333"
         id="rect869-4-6"
         style="fill:none;fill-opacity:1;stroke:#030200;stroke-width:0.25999999;stroke-linecap:round;stroke-miterlimit:4;stroke-dasharray:none;stroke-opacity:1" />
      <path
         sodipodi:nodetypes="cccsscssscsscc"
         inkscape:connector-curvature="0"
         id="path4631"
         d="m 11.404851,177.41588 0.120403,-8.42825 c 0,0 31.222507,-0.33326 38.205911,-0.0924 4.386692,0.0279 11.257894,1.42173 11.344644,8.66654 0.0461,3.84953 0.01911,4.52296 0.177573,6.1552 0.07069,0.72811 0.132504,0.82341 1.216138,0.94381 2.735521,-0.008 2.47136,3.11714 0.176325,3.07457 -2.287272,-0.0424 -11.146618,0.0353 -13.915901,0.0353 -2.769278,0 -2.408068,-2.76928 -0.240804,-2.64887 2.167263,0.12041 2.457942,-0.60327 2.457942,-0.60327 0,0 -0.04987,-1.20277 -0.170277,-3.61085 -0.120398,-2.40807 -1.204035,-3.13049 -3.612105,-3.13049 -2.408071,0 -35.759854,-0.3612 -35.759854,-0.3612 z"
         style="fill:#2f2c2c;fill-opacity:0.5706522;stroke:#000000;stroke-width:2.24894857;stroke-linecap:butt;stroke-linejoin:miter;stroke-miterlimit:4;stroke-dasharray:none;stroke-opacity:1" />
      <path
         sodipodi:nodetypes="cssc"
         inkscape:connector-curvature="0"
         id="path4633"
         d="m 36.569192,168.86723 c 0,0 0,-1.26424 0.240807,-6.32119 0.240808,-5.05695 2.648881,-5.89978 2.769283,0.36121 0.120398,6.26098 5e-6,5.95998 5e-6,5.95998"
         style="fill:#2f2c2c;fill-opacity:0.5706522;stroke:#000000;stroke-width:2.24894857;stroke-linecap:butt;stroke-linejoin:miter;stroke-miterlimit:4;stroke-dasharray:none;stroke-opacity:1" />
      <path
         sodipodi:nodetypes="cc"
         inkscape:connector-curvature="0"
         id="path4635"
         d="m 39.428777,160.69483 c 8.669054,-14.32802 36.873587,6.11049 0.0301,2.01676"
         style="fill:#2f2c2c;fill-opacity:0.5706522;stroke:#000000;stroke-width:2.24894857;stroke-linecap:butt;stroke-linejoin:miter;stroke-miterlimit:4;stroke-dasharray:none;stroke-opacity:1" />
      <path
         sodipodi:nodetypes="cc"
         inkscape:connector-curvature="0"
         id="path4635-0"
         d="m 36.995453,160.6689 c -8.669054,-14.32802 -37.06924198,6.09544 -0.225753,2.00172"
         style="fill:#2f2c2c;fill-opacity:0.5706522;stroke:#000000;stroke-width:2.24894857;stroke-linecap:butt;stroke-linejoin:miter;stroke-miterlimit:4;stroke-dasharray:none;stroke-opacity:1" />
      <path
         inkscape:connector-curvature="0"
         id="path4668"
         d="m 57.735861,217.53049 c 0.868701,-0.17374 1.949643,0.0174 2.740327,-0.37798 0.452953,-0.22647 0.925211,-0.32086 1.417412,-0.56696 0.679879,-0.33994 -0.188986,-1.1034 -0.188989,-0.37798 0,-1.05483 -0.155305,-1.75515 -0.377976,-2.64583 -0.288546,-1.15418 0.18899,-4.85115 0.18899,-6.3311 0,-0.98068 -0.329849,-1.98085 -0.566966,-2.92932 -0.367776,-1.4711 0.0057,-3.54192 0.188987,-5.00818 0.411051,-3.2884 -0.609708,-7.08913 -0.28348,-10.48884 -0.58275,-0.41335 -1.053546,-0.44568 -1.700893,-0.66146 -0.05321,-0.0177 -8.481425,0.21281 -8.693452,0.28348 -0.956035,0.31868 -1.265248,1.95127 -0.66146,0.94494 -0.0037,0.33698 -0.268957,1.06849 -0.09449,1.41741 0.178734,0.35748 0.636527,0.70609 0.850445,1.13393 0.32767,0.65534 -0.783749,4.29673 -0.944938,5.10268 -0.326388,1.63194 1.697818,4.2676 1.133927,7.08706 -0.161549,0.80774 -0.732988,1.44564 -0.850447,2.26785 -0.371298,2.59909 0.459874,6.02871 0.0945,8.22098 -0.132228,0.79337 -0.661458,2.07596 -0.661458,2.45685 2.132849,2.43872 5.803837,0.9937 8.409961,0.47247 z"
         style="fill:#0000ff;fill-opacity:0.5706522;stroke:#000000;stroke-width:0.26458332px;stroke-linecap:butt;stroke-linejoin:miter;stroke-opacity:1"
         sodipodi:nodetypes="ccccssccccccccccsccc" />
      <path
         inkscape:connector-curvature="0"
         id="path4675"
         d="m 53.01116,189.65475 c 2.080164,2.42988 -0.599454,5.0997 0.377975,8.03199"
         style="fill:none;stroke:#000000;stroke-width:0.26458332px;stroke-linecap:butt;stroke-linejoin:miter;stroke-opacity:1" />
      <path
         inkscape:connector-curvature="0"
         id="path4677"
         d="m 57.830354,195.51338 c -0.05634,1.1519 0.755158,3.43461 0.0945,4.53571 -0.695219,1.1587 -1.13393,1.6884 -1.13393,3.11831"
         style="fill:none;stroke:#000000;stroke-width:0.26458332px;stroke-linecap:butt;stroke-linejoin:miter;stroke-opacity:1" />
      <path
         inkscape:connector-curvature="0"
         id="path4679"
         d="m 53.767111,207.51412 c 1.270508,2.54269 -0.377976,5.33117 -0.377976,8.03199"
         style="fill:none;stroke:#000000;stroke-width:0.26458332px;stroke-linecap:butt;stroke-linejoin:miter;stroke-opacity:1" />
      <path
         inkscape:connector-curvature="0"
         id="path4681"
         d="m 58.586309,205.34076 c 0.236225,2.13135 -0.0945,4.29816 -0.0945,6.3311"
         style="fill:none;stroke:#000000;stroke-width:0.26458332px;stroke-linecap:butt;stroke-linejoin:miter;stroke-opacity:1" />
      <path
         inkscape:connector-curvature="0"
         id="path4683"
         d="m 54.712052,200.04909 c -0.554379,1.59303 0.61509,-0.1168 0.755952,0.0945 0.592746,0.88911 0.377975,7.52221 0.377975,9.07142"
         style="fill:none;stroke:#000000;stroke-width:0.26458332px;stroke-linecap:butt;stroke-linejoin:miter;stroke-opacity:1" />
      <path
         inkscape:connector-curvature="0"
         id="path4685"
         d="m 56.507438,190.22171 c 1.773417,1.10517 0.32258,4.17404 -0.377976,5.57515 -0.198641,0.39728 0,1.45657 0,1.88988 0,0.26435 0.165346,1.46762 0.0945,1.51191 -0.490336,0.30646 -1.007938,0.56696 -1.511906,0.85044"
         style="fill:none;stroke:#000000;stroke-width:0.26458332px;stroke-linecap:butt;stroke-linejoin:miter;stroke-opacity:1" />
      <path
         inkscape:connector-curvature="0"
         id="path4687"
         d="m 52.349701,200.71055 c 0.285581,0.68305 0.399426,0.48319 0.944941,0.75595 0.472001,0.236 -0.560464,2.15386 -0.661458,2.45685 -0.643927,1.93177 -0.850448,3.57202 -0.850448,5.85863"
         style="fill:none;stroke:#000000;stroke-width:0.26458332px;stroke-linecap:butt;stroke-linejoin:miter;stroke-opacity:1" />
      <path
         inkscape:connector-curvature="0"
         id="path4689"
         d="m 57.074403,213.27826 c 0.6164,-0.44858 0.348281,5.19177 0.661458,4.25223"
         style="fill:none;stroke:#000000;stroke-width:0.26458332px;stroke-linecap:butt;stroke-linejoin:miter;stroke-opacity:1" />
    </g>
  </g>
</svg>
